<svg width="64" height="48" viewBox="0 0 64 48" fill="none" xmlns="http://www.w3.org/2000/svg">
  <path d="M10.6 17.2H12.2V10.8H10.6V17.2ZM13.8 17.2H15.4V10.8H13.8V17.2ZM13 22C11.8933 22 10.8533 21.79 9.88 21.37C8.90667 20.95 8.06 20.38 7.34 19.66C6.62 18.94 6.05 18.0933 5.63 17.12C5.21 16.1467 5 15.1067 5 14C5 12.8933 5.21 11.8533 5.63 10.88C6.05 9.90667 6.62 9.06 7.34 8.34C8.06 7.62 8.90667 7.05 9.88 6.63C10.8533 6.21 11.8933 6 13 6C14.1067 6 15.1467 6.21 16.12 6.63C17.0933 7.05 17.94 7.62 18.66 8.34C19.38 9.06 19.95 9.90667 20.37 10.88C20.79 11.8533 21 12.8933 21 14C21 15.1067 20.79 16.1467 20.37 17.12C19.95 18.0933 19.38 18.94 18.66 19.66C17.94 20.38 17.0933 20.95 16.12 21.37C15.1467 21.79 14.1067 22 13 22ZM13 20.4C14.7867 20.4 16.3 19.78 17.54 18.54C18.78 17.3 19.4 15.7867 19.4 14C19.4 12.2133 18.78 10.7 17.54 9.46C16.3 8.22 14.7867 7.6 13 7.6C11.2133 7.6 9.7 8.22 8.46 9.46C7.22 10.7 6.6 12.2133 6.6 14C6.6 15.7867 7.22 17.3 8.46 18.54C9.7 19.78 11.2133 20.4 13 20.4Z" fill="black"/>
  <path d="M47.4 37.0909V34.1818H53.8V19.6364H31.4V25.4545H28.2V13.8182C28.2 13.0182 28.5133 12.3333 29.14 11.7636C29.7667 11.1939 30.52 10.9091 31.4 10.9091H33V8H36.2V10.9091H49V8H52.2V10.9091H53.8C54.68 10.9091 55.4333 11.1939 56.06 11.7636C56.6867 12.3333 57 13.0182 57 13.8182V34.1818C57 34.9818 56.6867 35.6667 56.06 36.2364C55.4333 36.8061 54.68 37.0909 53.8 37.0909H47.4ZM36.2 40L33.96 37.9636L38.08 34.1818H25V31.2727H38.08L33.96 27.4909L36.2 25.4545L44.2 32.7273L36.2 40ZM31.4 16.7273H53.8V13.8182H31.4V16.7273Z" fill="black"/>
  <path d="M15.64 38.76L16.76 37.64L13.8 34.68V31H12.2V35.32L15.64 38.76ZM13 43C11.8933 43 10.8533 42.79 9.88 42.37C8.90667 41.95 8.06 41.38 7.34 40.66C6.62 39.94 6.05 39.0933 5.63 38.12C5.21 37.1467 5 36.1067 5 35C5 33.8933 5.21 32.8533 5.63 31.88C6.05 30.9067 6.62 30.06 7.34 29.34C8.06 28.62 8.90667 28.05 9.88 27.63C10.8533 27.21 11.8933 27 13 27C14.1067 27 15.1467 27.21 16.12 27.63C17.0933 28.05 17.94 28.62 18.66 29.34C19.38 30.06 19.95 30.9067 20.37 31.88C20.79 32.8533 21 33.8933 21 35C21 36.1067 20.79 37.1467 20.37 38.12C19.95 39.0933 19.38 39.94 18.66 40.66C17.94 41.38 17.0933 41.95 16.12 42.37C15.1467 42.79 14.1067 43 13 43ZM13 41.4C14.7733 41.4 16.2833 40.7767 17.53 39.53C18.7767 38.2833 19.4 36.7733 19.4 35C19.4 33.2267 18.7767 31.7167 17.53 30.47C16.2833 29.2233 14.7733 28.6 13 28.6C11.2267 28.6 9.71667 29.2233 8.47 30.47C7.22333 31.7167 6.6 33.2267 6.6 35C6.6 36.7733 7.22333 38.2833 8.47 39.53C9.71667 40.7767 11.2267 41.4 13 41.4Z" fill="black"/>
</svg>
