<svg width="64" height="48" viewBox="0 0 64 48" fill="none" xmlns="http://www.w3.org/2000/svg">
  <path d="M47.4 37.0909V34.1818H53.8V19.6364H31.4V25.4545H28.2V13.8182C28.2 13.0182 28.5133 12.3333 29.14 11.7636C29.7667 11.1939 30.52 10.9091 31.4 10.9091H33V8H36.2V10.9091H49V8H52.2V10.9091H53.8C54.68 10.9091 55.4333 11.1939 56.06 11.7636C56.6867 12.3333 57 13.0182 57 13.8182V34.1818C57 34.9818 56.6867 35.6667 56.06 36.2364C55.4333 36.8061 54.68 37.0909 53.8 37.0909H47.4ZM36.2 40L33.96 37.9636L38.08 34.1818H25V31.2727H38.08L33.96 27.4909L36.2 25.4545L44.2 32.7273L36.2 40ZM31.4 16.7273H53.8V13.8182H31.4V16.7273Z"/>
  <path d="M11 16.6L16.6 13L11 9.4V16.6ZM13 21C11.8933 21 10.8533 20.79 9.88 20.37C8.90667 19.95 8.06 19.38 7.34 18.66C6.62 17.94 6.05 17.0933 5.63 16.12C5.21 15.1467 5 14.1067 5 13C5 11.8933 5.21 10.8533 5.63 9.88C6.05 8.90667 6.62 8.06 7.34 7.34C8.06 6.62 8.90667 6.05 9.88 5.63C10.8533 5.21 11.8933 5 13 5C14.1067 5 15.1467 5.21 16.12 5.63C17.0933 6.05 17.94 6.62 18.66 7.34C19.38 8.06 19.95 8.90667 20.37 9.88C20.79 10.8533 21 11.8933 21 13C21 14.1067 20.79 15.1467 20.37 16.12C19.95 17.0933 19.38 17.94 18.66 18.66C17.94 19.38 17.0933 19.95 16.12 20.37C15.1467 20.79 14.1067 21 13 21ZM13 19.4C14.7867 19.4 16.3 18.78 17.54 17.54C18.78 16.3 19.4 14.7867 19.4 13C19.4 11.2133 18.78 9.7 17.54 8.46C16.3 7.22 14.7867 6.6 13 6.6C11.2133 6.6 9.7 7.22 8.46 8.46C7.22 9.7 6.6 11.2133 6.6 13C6.6 14.7867 7.22 16.3 8.46 17.54C9.7 18.78 11.2133 19.4 13 19.4Z"/>
</svg>
