<svg width="64" height="48" viewBox="0 0 64 48" fill="none" xmlns="http://www.w3.org/2000/svg">
  <path d="M24.8 26.4H39.2V24H24.8V26.4ZM24.8 22.8H39.2V20.4H24.8V22.8ZM24.8 19.2H39.2V16.8H24.8V19.2ZM44 36L39.2 31.2H22.4C21.74 31.2 21.175 30.965 20.705 30.495C20.235 30.025 20 29.46 20 28.8V14.4C20 13.74 20.235 13.175 20.705 12.705C21.175 12.235 21.74 12 22.4 12H41.6C42.26 12 42.825 12.235 43.295 12.705C43.765 13.175 44 13.74 44 14.4V36ZM22.4 28.8H40.22L41.6 30.15V14.4H22.4V28.8Z" fill="black"/>
</svg>
