<svg width="256" height="256" viewBox="0 0 256 256" fill="none" xmlns="http://www.w3.org/2000/svg">
  <path d="M195.4 212.8H201.8V187.2H195.4V212.8ZM208.2 212.8H214.6V187.2H208.2V212.8ZM205 232C200.573 232 196.413 231.16 192.52 229.48C188.627 227.8 185.24 225.52 182.36 222.64C179.48 219.76 177.2 216.373 175.52 212.48C173.84 208.587 173 204.427 173 200C173 195.573 173.84 191.413 175.52 187.52C177.2 183.627 179.48 180.24 182.36 177.36C185.24 174.48 188.627 172.2 192.52 170.52C196.413 168.84 200.573 168 205 168C209.427 168 213.587 168.84 217.48 170.52C221.373 172.2 224.76 174.48 227.64 177.36C230.52 180.24 232.8 183.627 234.48 187.52C236.16 191.413 237 195.573 237 200C237 204.427 236.16 208.587 234.48 212.48C232.8 216.373 230.52 219.76 227.64 222.64C224.76 225.52 221.373 227.8 217.48 229.48C213.587 231.16 209.427 232 205 232ZM205 225.6C212.147 225.6 218.2 223.12 223.16 218.16C228.12 213.2 230.6 207.147 230.6 200C230.6 192.853 228.12 186.8 223.16 181.84C218.2 176.88 212.147 174.4 205 174.4C197.853 174.4 191.8 176.88 186.84 181.84C181.88 186.8 179.4 192.853 179.4 200C179.4 207.147 181.88 213.2 186.84 218.16C191.8 223.12 197.853 225.6 205 225.6Z" fill="black"/>
  <path d="M138.56 215.04L143.04 210.56L131.2 198.72V184H124.8V201.28L138.56 215.04ZM128 232C123.573 232 119.413 231.16 115.52 229.48C111.627 227.8 108.24 225.52 105.36 222.64C102.48 219.76 100.2 216.373 98.52 212.48C96.84 208.587 96 204.427 96 200C96 195.573 96.84 191.413 98.52 187.52C100.2 183.627 102.48 180.24 105.36 177.36C108.24 174.48 111.627 172.2 115.52 170.52C119.413 168.84 123.573 168 128 168C132.427 168 136.587 168.84 140.48 170.52C144.373 172.2 147.76 174.48 150.64 177.36C153.52 180.24 155.8 183.627 157.48 187.52C159.16 191.413 160 195.573 160 200C160 204.427 159.16 208.587 157.48 212.48C155.8 216.373 153.52 219.76 150.64 222.64C147.76 225.52 144.373 227.8 140.48 229.48C136.587 231.16 132.427 232 128 232ZM128 225.6C135.093 225.6 141.133 223.107 146.12 218.12C151.107 213.133 153.6 207.093 153.6 200C153.6 192.907 151.107 186.867 146.12 181.88C141.133 176.893 135.093 174.4 128 174.4C120.907 174.4 114.867 176.893 109.88 181.88C104.893 186.867 102.4 192.907 102.4 200C102.4 207.093 104.893 213.133 109.88 218.12C114.867 223.107 120.907 225.6 128 225.6Z" fill="black"/>
  <path d="M43 214.4L65.4 200L43 185.6V214.4ZM51 232C46.5733 232 42.4133 231.16 38.52 229.48C34.6267 227.8 31.24 225.52 28.36 222.64C25.48 219.76 23.2 216.373 21.52 212.48C19.84 208.587 19 204.427 19 200C19 195.573 19.84 191.413 21.52 187.52C23.2 183.627 25.48 180.24 28.36 177.36C31.24 174.48 34.6267 172.2 38.52 170.52C42.4133 168.84 46.5733 168 51 168C55.4267 168 59.5867 168.84 63.48 170.52C67.3733 172.2 70.76 174.48 73.64 177.36C76.52 180.24 78.8 183.627 80.48 187.52C82.16 191.413 83 195.573 83 200C83 204.427 82.16 208.587 80.48 212.48C78.8 216.373 76.52 219.76 73.64 222.64C70.76 225.52 67.3733 227.8 63.48 229.48C59.5867 231.16 55.4267 232 51 232ZM51 225.6C58.1467 225.6 64.2 223.12 69.16 218.16C74.12 213.2 76.6 207.147 76.6 200C76.6 192.853 74.12 186.8 69.16 181.84C64.2 176.88 58.1467 174.4 51 174.4C43.8533 174.4 37.8 176.88 32.84 181.84C27.88 186.8 25.4 192.853 25.4 200C25.4 207.147 27.88 213.2 32.84 218.16C37.8 223.12 43.8533 225.6 51 225.6Z" fill="black"/>
  <path d="M21.0455 105V46.8182H55.9318V53.0682H28.0909V72.7273H53.3182V78.9773H28.0909V105H21.0455ZM67.9986 105V46.8182H75.044V98.75H102.089V105H67.9986ZM159.824 75.9091C159.824 82.0455 158.716 87.3485 156.5 91.8182C154.284 96.2879 151.244 99.7348 147.381 102.159C143.517 104.583 139.104 105.795 134.142 105.795C129.18 105.795 124.767 104.583 120.903 102.159C117.04 99.7348 114 96.2879 111.784 91.8182C109.568 87.3485 108.46 82.0455 108.46 75.9091C108.46 69.7727 109.568 64.4697 111.784 60C114 55.5303 117.04 52.0833 120.903 49.6591C124.767 47.2348 129.18 46.0227 134.142 46.0227C139.104 46.0227 143.517 47.2348 147.381 49.6591C151.244 52.0833 154.284 55.5303 156.5 60C158.716 64.4697 159.824 69.7727 159.824 75.9091ZM153.006 75.9091C153.006 70.8712 152.163 66.6193 150.477 63.1534C148.811 59.6875 146.547 57.0644 143.688 55.2841C140.847 53.5038 137.665 52.6136 134.142 52.6136C130.619 52.6136 127.428 53.5038 124.568 55.2841C121.727 57.0644 119.464 59.6875 117.778 63.1534C116.112 66.6193 115.278 70.8712 115.278 75.9091C115.278 80.947 116.112 85.1989 117.778 88.6648C119.464 92.1307 121.727 94.7538 124.568 96.5341C127.428 98.3144 130.619 99.2045 134.142 99.2045C137.665 99.2045 140.847 98.3144 143.688 96.5341C146.547 94.7538 148.811 92.1307 150.477 88.6648C152.163 85.1989 153.006 80.947 153.006 75.9091ZM182.239 105L166.33 46.8182H173.489L185.648 94.2045H186.216L198.602 46.8182H206.557L218.943 94.2045H219.511L231.67 46.8182H238.83L222.92 105H215.648L202.807 58.6364H202.352L189.511 105H182.239Z" fill="black"/>
</svg>
