<svg width="64" height="48" viewBox="0 0 64 48" fill="none" xmlns="http://www.w3.org/2000/svg">
  <path d="M10.6 17.2H12.2V10.8H10.6V17.2ZM13.8 17.2H15.4V10.8H13.8V17.2ZM13 22C11.8933 22 10.8533 21.79 9.88 21.37C8.90667 20.95 8.06 20.38 7.34 19.66C6.62 18.94 6.05 18.0933 5.63 17.12C5.21 16.1467 5 15.1067 5 14C5 12.8933 5.21 11.8533 5.63 10.88C6.05 9.90667 6.62 9.06 7.34 8.34C8.06 7.62 8.90667 7.05 9.88 6.63C10.8533 6.21 11.8933 6 13 6C14.1067 6 15.1467 6.21 16.12 6.63C17.0933 7.05 17.94 7.62 18.66 8.34C19.38 9.06 19.95 9.90667 20.37 10.88C20.79 11.8533 21 12.8933 21 14C21 15.1067 20.79 16.1467 20.37 17.12C19.95 18.0933 19.38 18.94 18.66 19.66C17.94 20.38 17.0933 20.95 16.12 21.37C15.1467 21.79 14.1067 22 13 22ZM13 20.4C14.7867 20.4 16.3 19.78 17.54 18.54C18.78 17.3 19.4 15.7867 19.4 14C19.4 12.2133 18.78 10.7 17.54 9.46C16.3 8.22 14.7867 7.6 13 7.6C11.2133 7.6 9.7 8.22 8.46 9.46C7.22 10.7 6.6 12.2133 6.6 14C6.6 15.7867 7.22 17.3 8.46 18.54C9.7 19.78 11.2133 20.4 13 20.4Z"/>
  <path d="M46.5429 40C45.9333 40 45.3492 39.8737 44.7905 39.6211C44.2317 39.3684 43.7365 39.0035 43.3048 38.5263L35.5333 29.8947L36.7905 28.4632C37.146 28.0702 37.5778 27.8035 38.0857 27.6632C38.5937 27.5228 39.1016 27.5228 39.6095 27.6632L42.2381 28.5053V16.4211C42.2381 15.9439 42.3841 15.5439 42.6762 15.2211C42.9683 14.8982 43.3302 14.7368 43.7619 14.7368C44.1937 14.7368 44.5556 14.8982 44.8476 15.2211C45.1397 15.5439 45.2857 15.9439 45.2857 16.4211V32.9684L41.5524 31.7895L45.4762 36.1263C45.6286 36.2947 45.7937 36.4211 45.9714 36.5053C46.1492 36.5895 46.3397 36.6316 46.5429 36.6316H52.9048C53.7429 36.6316 54.4603 36.3018 55.0571 35.6421C55.654 34.9825 55.9524 34.1895 55.9524 33.2632V26.5263C55.9524 26.0491 56.0984 25.6491 56.3905 25.3263C56.6825 25.0035 57.0444 24.8421 57.4762 24.8421C57.9079 24.8421 58.2698 25.0035 58.5619 25.3263C58.854 25.6491 59 26.0491 59 26.5263V33.2632C59 35.1158 58.4032 36.7018 57.2095 38.0211C56.0159 39.3404 54.581 40 52.9048 40H46.5429ZM46.8095 28.2105V21.4737C46.8095 20.9965 46.9556 20.5965 47.2476 20.2737C47.5397 19.9509 47.9016 19.7895 48.3333 19.7895C48.7651 19.7895 49.127 19.9509 49.419 20.2737C49.7111 20.5965 49.8571 20.9965 49.8571 21.4737V28.2105H46.8095ZM51.381 28.2105V23.1579C51.381 22.6807 51.527 22.2807 51.819 21.9579C52.1111 21.6351 52.473 21.4737 52.9048 21.4737C53.3365 21.4737 53.6984 21.6351 53.9905 21.9579C54.2825 22.2807 54.4286 22.6807 54.4286 23.1579V28.2105H51.381ZM30.0476 34.9474C29.2095 34.9474 28.4921 34.6175 27.8952 33.9579C27.2984 33.2982 27 32.5053 27 31.5789V11.3684C27 10.4421 27.2984 9.64912 27.8952 8.98947C28.4921 8.32982 29.2095 8 30.0476 8H52.9048C53.7429 8 54.4603 8.32982 55.0571 8.98947C55.654 9.64912 55.9524 10.4421 55.9524 11.3684V18.1053H52.9048V11.3684H30.0476V31.5789H32.7905L35.8 34.9474H30.0476Z"/>
</svg>
