<svg width="64" height="48" viewBox="0 0 64 48" fill="none" xmlns="http://www.w3.org/2000/svg">
  <path d="M11 16.6L16.6 13L11 9.4V16.6ZM13 21C11.8933 21 10.8533 20.79 9.88 20.37C8.90667 19.95 8.06 19.38 7.34 18.66C6.62 17.94 6.05 17.0933 5.63 16.12C5.21 15.1467 5 14.1067 5 13C5 11.8933 5.21 10.8533 5.63 9.88C6.05 8.90667 6.62 8.06 7.34 7.34C8.06 6.62 8.90667 6.05 9.88 5.63C10.8533 5.21 11.8933 5 13 5C14.1067 5 15.1467 5.21 16.12 5.63C17.0933 6.05 17.94 6.62 18.66 7.34C19.38 8.06 19.95 8.90667 20.37 9.88C20.79 10.8533 21 11.8933 21 13C21 14.1067 20.79 15.1467 20.37 16.12C19.95 17.0933 19.38 17.94 18.66 18.66C17.94 19.38 17.0933 19.95 16.12 20.37C15.1467 20.79 14.1067 21 13 21ZM13 19.4C14.7867 19.4 16.3 18.78 17.54 17.54C18.78 16.3 19.4 14.7867 19.4 13C19.4 11.2133 18.78 9.7 17.54 8.46C16.3 7.22 14.7867 6.6 13 6.6C11.2133 6.6 9.7 7.22 8.46 8.46C7.22 9.7 6.6 11.2133 6.6 13C6.6 14.7867 7.22 16.3 8.46 17.54C9.7 18.78 11.2133 19.4 13 19.4Z"/>
  <path d="M39.303 40C38.4949 40 37.7407 39.8364 37.0404 39.5091C36.3401 39.1818 35.7609 38.7152 35.303 38.1091L25 24.5455L25.9697 23.7091C26.4815 23.2485 27.0875 22.9818 27.7879 22.9091C28.4882 22.8364 29.1212 22.9818 29.6869 23.3455L34.3737 26.2909V12.3636C34.3737 11.9515 34.5286 11.6061 34.8384 11.3273C35.1481 11.0485 35.532 10.9091 35.9899 10.9091C36.4478 10.9091 36.8316 11.0485 37.1414 11.3273C37.4512 11.6061 37.6061 11.9515 37.6061 12.3636V31.8909L31.6263 28.1091L37.9697 36.4364C38.1044 36.6303 38.2929 36.7879 38.5354 36.9091C38.7778 37.0303 39.0337 37.0909 39.303 37.0909H50.5354C51.4242 37.0909 52.1852 36.8061 52.8182 36.2364C53.4512 35.6667 53.7677 34.9818 53.7677 34.1818V13.8182C53.7677 13.4061 53.9226 13.0606 54.2323 12.7818C54.5421 12.503 54.9259 12.3636 55.3838 12.3636C55.8418 12.3636 56.2256 12.503 56.5354 12.7818C56.8451 13.0606 57 13.4061 57 13.8182V34.1818C57 35.7818 56.367 37.1515 55.101 38.2909C53.835 39.4303 52.3131 40 50.5354 40H39.303ZM40.8384 24V9.45455C40.8384 9.04242 40.9933 8.69697 41.303 8.41818C41.6128 8.13939 41.9966 8 42.4545 8C42.9125 8 43.2963 8.13939 43.6061 8.41818C43.9158 8.69697 44.0707 9.04242 44.0707 9.45455V24H40.8384ZM47.303 24V10.9091C47.303 10.497 47.4579 10.1515 47.7677 9.87273C48.0774 9.59394 48.4613 9.45455 48.9192 9.45455C49.3771 9.45455 49.7609 9.59394 50.0707 9.87273C50.3805 10.1515 50.5354 10.497 50.5354 10.9091V24H47.303Z"/>
</svg>
